<svg id="Layer_1" data-name="Layer 1" xmlns="http://www.w3.org/2000/svg" viewBox="0 0 512 512"><defs><style>.cls-1{fill:#fff;}.cls-2{fill:#908fe2;}.cls-3{opacity:0.14;}.cls-4{fill:#17292d;}.cls-5{fill:#f44747;}.cls-6{fill:#141f38;}</style></defs><title>pills-filled</title><path class="cls-1" d="M294.29,499.2a96,96,0,0,1-83-144L265.66,261l166.26,96-54.4,94.22A96.35,96.35,0,0,1,294.29,499.2Z"/><path class="cls-2" d="M265.66,261l54.4-94.22a96,96,0,1,1,166.27,96L431.92,357Z"/><g class="cls-3"><path class="cls-4" d="M442,237.13,333.19,425.58a108.83,108.83,0,0,1-118.5,51.67A108.76,108.76,0,0,0,240,497.41h0a108.79,108.79,0,0,0,148.62-39.82L497.41,269.13a108.8,108.8,0,0,0-39.82-148.62h0a108.75,108.75,0,0,0-30.11-11.84A108.84,108.84,0,0,1,442,237.13Z"/></g><path class="cls-1" d="M140.87,251.68a64.24,64.24,0,0,1-55.49-32l-32-55.42,110.84-64,32,55.42a64,64,0,0,1-55.35,96Z"/><path class="cls-5" d="M21.39,108.81a64,64,0,1,1,110.85-64l32,55.42-110.84,64Z"/><path class="cls-6" d="M457.58,120.51A108.74,108.74,0,0,0,309,160.33l-52.51,91-56.28,97.49A108.8,108.8,0,0,0,240,497.41h0a108.74,108.74,0,0,0,148.62-39.82l48-83.14h0l60.8-105.31A108.8,108.8,0,0,0,457.58,120.51ZM366.44,444.78a83.2,83.2,0,1,1-144.1-83.2l48-83.14,144.1,83.2ZM475.24,256.33l-48,83.14-52.39-30.25-91.71-53,48-83.14a83.14,83.14,0,0,1,113.65-30.45,83.2,83.2,0,0,1,30.45,113.65ZM207.31,149.26l-25.6-44.34h0L170.83,86.07l-1.91-3.32h0l-25.6-44.34a76.8,76.8,0,1,0-133,76.8l38.4,66.51h0l25.6,44.34a76.8,76.8,0,1,0,133-76.8ZM51.21,32.47a51.16,51.16,0,0,1,69.94,18.74l25.6,44.34L117.5,112.44,58.07,146.75l-25.6-44.34A51.26,51.26,0,0,1,51.21,32.47Zm139,168.44a51.24,51.24,0,0,1-49.38,38,51.41,51.41,0,0,1-44.41-25.61l-25.6-44.34,58.94-34,29.74-17.17,25.6,44.34A50.86,50.86,0,0,1,190.26,200.92Z"/><g class="cls-3"><path class="cls-4" d="M99,64l64,110.85a76.77,76.77,0,0,1-8.17,88.25,76.63,76.63,0,0,0,52.51-113.85l-64-110.85A76.62,76.62,0,0,0,18.47,27,76.76,76.76,0,0,1,99,64Z"/></g></svg>